<?xml version="1.0" encoding="utf-8"?>
<!-- Generator: Adobe Illustrator 25.4.1, SVG Export Plug-In . SVG Version: 6.00 Build 0)  -->
<svg version="1.1" id="_x32_" xmlns="http://www.w3.org/2000/svg" xmlns:xlink="http://www.w3.org/1999/xlink" x="0px" y="0px"
	 viewBox="0 0 70 70" style="enable-background:new 0 0 70 70;" xml:space="preserve">
<style type="text/css">
	.st0{fill:#D9D9D9;}
</style>
<g id="SVGRepo_bgCarrier">
</g>
<g id="SVGRepo_tracerCarrier">
</g>
<g id="SVGRepo_iconCarrier">
	<g>
		<path class="st0" d="M60.3,9.3H9.7C4.4,9.3,0,13.6,0,19v32c0,5.4,4.4,9.7,9.7,9.7h50.6c5.4,0,9.7-4.4,9.7-9.7V19
			C70,13.6,65.6,9.3,60.3,9.3z M24.4,44L10.7,55.6c-1,0.8-2.4,0.7-3.2-0.3c-0.8-1-0.7-2.4,0.3-3.2l13.6-11.6c1-0.8,2.4-0.7,3.2,0.3
			C25.4,41.7,25.3,43.2,24.4,44z M35,39.6c-1.8,0-3.6-0.6-5-1.8l0,0l0,0c0,0,0,0,0,0L9.2,19.6c-1-0.8-1.1-2.3-0.2-3.2
			c0.8-1,2.3-1.1,3.2-0.2L33,34.3c0.4,0.4,1.2,0.7,2,0.7c0.8,0,1.5-0.3,2-0.7l0,0l20.9-18.1c1-0.8,2.4-0.7,3.2,0.2
			c0.8,1,0.7,2.4-0.2,3.2L40,37.8C38.6,39,36.8,39.6,35,39.6z M62.5,55.3c-0.8,1-2.3,1.1-3.2,0.3L45.6,44c-1-0.8-1.1-2.3-0.3-3.2
			c0.8-1,2.3-1.1,3.2-0.3l13.6,11.6C63.2,52.9,63.3,54.4,62.5,55.3z"/>
	</g>
</g>
</svg>
