<?xml version="1.0" encoding="utf-8"?>
<!-- Generator: Adobe Illustrator 25.4.1, SVG Export Plug-In . SVG Version: 6.00 Build 0)  -->
<svg version="1.1"
	 id="svg1" sodipodi:docname="telegram.svg" xmlns:inkscape="http://www.inkscape.org/namespaces/inkscape" xmlns:sodipodi="http://sodipodi.sourceforge.net/DTD/sodipodi-0.dtd" xmlns:svg="http://www.w3.org/2000/svg"
	 xmlns="http://www.w3.org/2000/svg" xmlns:xlink="http://www.w3.org/1999/xlink" x="0px" y="0px" viewBox="0 0 50 50"
	 style="enable-background:new 0 0 50 50;" xml:space="preserve">
<style type="text/css">
	.st0{fill:#D9D9D0;}
	.st1{fill:#D9D9D9;}
</style>
<sodipodi:namedview  bordercolor="#000000" borderopacity="0.25" id="namedview1" inkscape:current-layer="svg1" inkscape:cx="10.915961" inkscape:cy="23.113553" inkscape:deskcolor="#d1d1d1" inkscape:pagecheckerboard="0" inkscape:pageopacity="0.0" inkscape:showpageshadow="2" inkscape:window-height="715" inkscape:window-maximized="1" inkscape:window-width="1366" inkscape:window-x="1016" inkscape:window-y="-8" inkscape:zoom="11.313709" pagecolor="#ffffff" showgrid="false">
	</sodipodi:namedview>
<path id="path1" d="M25,2c12.7,0,23,10.3,23,23S37.7,48,25,48S2,37.7,2,25S12.3,2,25,2z M32.9,34.4c0.4-1.3,2.4-14.2,2.7-16.8
	c0.1-0.8-0.2-1.3-0.6-1.5c-0.6-0.3-1.4-0.1-2.4,0.2c-1.4,0.5-18.8,7.9-19.8,8.3c-1,0.4-1.9,0.8-1.9,1.5c0,0.5,0.3,0.7,1,1
	c0.8,0.3,2.7,0.9,3.8,1.2c1.1,0.3,2.3,0,3-0.4c0.7-0.5,9.3-6.2,9.9-6.7c0.6-0.5,1.1,0.1,0.6,0.6c-0.5,0.5-6.4,6.2-7.2,7
	c-0.9,1-0.3,2,0.4,2.4c0.7,0.5,5.9,3.9,6.7,4.5s1.6,0.8,2.3,0.8S32.6,35.5,32.9,34.4z"/>
<path id="path2" class="st0" d="M22.1,47.8c-6.6-0.8-12.5-4.5-16.2-10.1c-2.5-3.8-3.8-8-3.8-12.6c0-4.6,1.3-8.8,3.8-12.6
	C9.6,6.7,15.6,3,22.2,2.2c1.5-0.2,4.1-0.2,5.5,0c5.2,0.6,10,3,13.6,6.7c2.6,2.7,4.4,5.7,5.5,9.2c1.4,4.3,1.4,9.4,0,13.8
	c-1.1,3.4-2.9,6.4-5.4,9c-3.7,3.8-8.5,6.2-13.7,6.9C26.4,48,23.5,47.9,22.1,47.8L22.1,47.8z M31.9,36.3c0.6-0.3,1-1.6,1.5-4
	c0.7-4,2.1-13.2,2.2-14.6c0.1-1-0.1-1.4-0.6-1.6c-0.5-0.2-1.5-0.2-2.4,0.2c-1.4,0.5-20.1,8.4-20.8,8.8c-0.6,0.3-0.9,0.7-0.9,1.1
	c0,0.6,0.3,0.8,2.3,1.4c2.6,0.8,3,0.9,3.9,0.9c0.4,0,1-0.1,1.2-0.2c0.4-0.2,8.6-5.6,10-6.6c0.8-0.6,0.9-0.6,1.1-0.4
	c0.1,0.1,0.2,0.2,0.1,0.3c-0.1,0.1-1.8,1.8-3.9,3.9c-4,3.9-4,4-3.9,4.7c0,0.2,0.1,0.4,0.3,0.6c0.3,0.4,7.6,5.3,8.3,5.6
	C30.7,36.4,31.6,36.5,31.9,36.3z"/>
<path id="path15" class="st1" d="M23.4,47.8c-2.6-0.1-5.2-0.8-7.8-1.9c-6.5-2.9-11.5-9-13-15.9c-0.4-1.7-0.5-2.8-0.5-5
	c0-2.9,0.3-4.7,1.1-7.2c1.4-4.4,4.4-8.4,8.2-11.2c3.3-2.5,7.5-4,11.5-4.4c1.4-0.1,4.1-0.1,5.3,0.1C36.9,3.7,44.1,9.8,46.8,18
	c1.1,3.4,1.4,7.2,0.7,10.9c-1.2,7-5.8,13.3-12.3,16.5C31.5,47.3,28,48,23.4,47.8z M32.1,36.2c0.7-0.7,1.2-2.6,2.3-9.8
	c0.9-5.9,1.2-8.4,1.2-9.2c0-0.6-0.1-0.7-0.3-0.9L35,16L34,16l-0.9,0l-1.5,0.6c-3,1.2-18.1,7.6-19.5,8.2c-1,0.5-1.3,0.8-1.3,1.3
	c0,0.5,0.2,0.7,1,1c1.1,0.4,3.6,1.2,4.3,1.2c0.9,0.1,1.9,0,2.5-0.4c0.8-0.4,6.9-4.5,8.7-5.7c0.8-0.6,1.6-1.1,1.7-1.1
	c0.1,0,0.2,0,0.3,0.1c0.2,0.2,0.1,0.3-3.6,3.9c-2.5,2.5-3.9,3.9-4,4.1c-0.2,0.4-0.1,0.9,0.1,1.3c0.2,0.3,0.9,0.8,3.4,2.5
	c3.2,2.2,4.9,3.2,5.4,3.3C31.2,36.5,31.9,36.5,32.1,36.2L32.1,36.2z"/>
</svg>
