<?xml version="1.0" encoding="UTF-8" standalone="no"?>
<svg
   viewBox="0 0 50 50"
   width="50px"
   height="50px"
   version="1.1"
   id="svg1"
   sodipodi:docname="telegram.svg"
   inkscape:version="1.4 (86a8ad7, 2024-10-11)"
   xmlns:inkscape="http://www.inkscape.org/namespaces/inkscape"
   xmlns:sodipodi="http://sodipodi.sourceforge.net/DTD/sodipodi-0.dtd"
   xmlns="http://www.w3.org/2000/svg"
   xmlns:svg="http://www.w3.org/2000/svg">
  <defs
     id="defs1" />
  <sodipodi:namedview
     id="namedview1"
     pagecolor="#ffffff"
     bordercolor="#000000"
     borderopacity="0.25"
     inkscape:showpageshadow="2"
     inkscape:pageopacity="0.0"
     inkscape:pagecheckerboard="0"
     inkscape:deskcolor="#d1d1d1"
     showgrid="false"
     inkscape:zoom="11.313709"
     inkscape:cx="10.915961"
     inkscape:cy="23.113553"
     inkscape:window-width="1366"
     inkscape:window-height="715"
     inkscape:window-x="1016"
     inkscape:window-y="-8"
     inkscape:window-maximized="1"
     inkscape:current-layer="svg1" />
  <path
     d="M25,2c12.703,0,23,10.297,23,23S37.703,48,25,48S2,37.703,2,25S12.297,2,25,2z M32.934,34.375 c0.423-1.298,2.405-14.234,2.65-16.783c0.074-0.772-0.17-1.285-0.648-1.514c-0.578-0.278-1.434-0.139-2.427,0.219 c-1.362,0.491-18.774,7.884-19.78,8.312c-0.954,0.405-1.856,0.847-1.856,1.487c0,0.45,0.267,0.703,1.003,0.966 c0.766,0.273,2.695,0.858,3.834,1.172c1.097,0.303,2.346,0.04,3.046-0.395c0.742-0.461,9.305-6.191,9.92-6.693 c0.614-0.502,1.104,0.141,0.602,0.644c-0.502,0.502-6.38,6.207-7.155,6.997c-0.941,0.959-0.273,1.953,0.358,2.351 c0.721,0.454,5.906,3.932,6.687,4.49c0.781,0.558,1.573,0.811,2.298,0.811C32.191,36.439,32.573,35.484,32.934,34.375z"
     id="path1" />
  <path
     style="fill:#d9d9d0;stroke-width:0.0904159;fill-opacity:1"
     d="M 22.112466,47.773531 C 15.520199,46.929248 9.5954302,43.231569 5.8789826,37.642129 3.3377288,33.82015 2.079566,29.633756 2.079566,25 c 0,-4.635651 1.2561264,-8.817023 3.7965029,-12.637731 3.754943,-5.64741 9.6809451,-9.3209748 16.3635461,-10.1438638 1.45326,-0.1789531 4.06751,-0.1789531 5.52077,0 5.190126,0.639107 9.975868,3.0109161 13.61018,6.7451918 2.624478,2.696666 4.407793,5.663465 5.536043,9.210002 1.376306,4.32627 1.360751,9.416887 -0.04209,13.776296 -1.095183,3.403336 -2.874755,6.373878 -5.363374,8.952786 -3.700105,3.834349 -8.490183,6.232363 -13.740755,6.878914 -1.395629,0.171856 -4.275179,0.167745 -5.647919,-0.0081 z M 31.92883,36.340769 c 0.55554,-0.297317 1.032323,-1.598226 1.47226,-4.01708 0.724846,-3.985344 2.103362,-13.210539 2.187514,-14.639115 0.05715,-0.970153 -0.08396,-1.352485 -0.597646,-1.619273 -0.452876,-0.235206 -1.54007,-0.160776 -2.441229,0.16713 -1.428677,0.519853 -20.119328,8.412593 -20.825743,8.794352 -0.595283,0.3217 -0.874076,0.67083 -0.874076,1.094592 0,0.588963 0.331523,0.79282 2.266124,1.393464 2.60449,0.808627 3.03429,0.902998 3.882041,0.852384 0.441573,-0.02636 0.965202,-0.121577 1.230555,-0.223756 0.393529,-0.151536 8.586865,-5.562601 9.99987,-6.604142 0.780121,-0.575035 0.877401,-0.611041 1.086348,-0.402094 0.138003,0.138003 0.158005,0.217923 0.08751,0.349648 -0.05026,0.09392 -1.783019,1.831753 -3.850572,3.861863 -4.009972,3.937353 -4.04177,3.975574 -3.90667,4.695724 0.03251,0.17329 0.149664,0.447605 0.260343,0.609587 0.251095,0.367489 7.626245,5.326581 8.315831,5.591612 0.520528,0.200057 1.418032,0.250044 1.707542,0.0951 z"
     id="path2" />
  <path
     style="fill:#000000;fill-opacity:1;stroke-width:0.0883883;paint-order:stroke fill markers"
     d="M 23.422912,47.814212 C 20.851855,47.692435 18.201848,47.031181 15.62436,45.868245 9.1347839,42.940217 4.1559057,36.849274 2.6596979,30.007844 2.2813912,28.278032 2.1729983,27.169632 2.1713288,25.013902 2.1691187,22.160141 2.4498402,20.33192 3.2762886,17.817763 4.710785,13.453849 7.6355852,9.4302197 11.431231,6.5990595 14.718038,4.1474402 18.890496,2.5585703 22.98097,2.2009245 c 1.426039,-0.124684 4.073405,-0.055541 5.347495,0.1396636 8.60205,1.31793 15.80231,7.4348606 18.469473,15.6906119 1.111694,3.441058 1.370712,7.207116 0.74773,10.87179 -1.194489,7.026548 -5.826633,13.26292 -12.26894,16.51798 -3.755679,1.897607 -7.282909,2.609741 -11.853816,2.393242 z m 8.721513,-11.589325 c 0.708459,-0.665564 1.155167,-2.596392 2.276766,-9.840965 0.911484,-5.887423 1.232265,-8.387732 1.18452,-9.232694 -0.03191,-0.564683 -0.06302,-0.652783 -0.321724,-0.91113 l -0.286403,-0.286001 -0.948074,0.0034 -0.948074,0.0034 -1.458408,0.583833 c -3.047523,1.219991 -18.078513,7.579098 -19.48963,8.245409 -1.000044,0.472206 -1.325825,0.797825 -1.325825,1.325166 0,0.511463 0.181545,0.692637 1.016835,1.014759 1.08175,0.417167 3.637919,1.152163 4.272814,1.228598 0.944134,0.113663 1.85467,-0.02553 2.482091,-0.379445 0.750934,-0.423581 6.890744,-4.469512 8.725059,-5.749524 0.835986,-0.583363 1.589082,-1.087822 1.673547,-1.12102 0.09879,-0.03883 0.210017,0.002 0.311813,0.114495 0.154892,0.171152 0.07769,0.254791 -3.645465,3.949447 -2.54041,2.520966 -3.855813,3.888765 -3.960596,4.118356 -0.179481,0.393267 -0.146968,0.907042 0.07925,1.252292 0.179971,0.274669 0.939418,0.837095 3.381673,2.504374 3.240051,2.211918 4.868884,3.216432 5.417777,3.341183 0.662152,0.150492 1.298464,0.08372 1.562057,-0.163909 z"
     id="path15" />
</svg>
